<mxfile host="app.diagrams.net" modified="2021-11-24T03:18:02.735Z" agent="5.0 (Windows NT 10.0; Win64; x64) AppleWebKit/537.36 (KHTML, like Gecko) Chrome/92.0.4515.159 Safari/537.36" etag="IDupyNVLGu3kZQuAll1F" version="15.6.6" type="github">
  <diagram id="Pg_NO7NtwOenx8nFga-8" name="Page-1">
    <mxGraphModel dx="1221" dy="578" grid="1" gridSize="10" guides="1" tooltips="1" connect="1" arrows="1" fold="1" page="1" pageScale="1" pageWidth="400" pageHeight="600" math="1" shadow="0">
      <root>
        <mxCell id="0" />
        <mxCell id="1" parent="0" />
        <mxCell id="ikSiXr2rSWbBqYA-w5zq-21" value="" style="endArrow=classic;html=1;entryX=0.5;entryY=0;entryDx=0;entryDy=0;exitX=0.5;exitY=1;exitDx=0;exitDy=0;strokeColor=default;labelBackgroundColor=default;fontColor=default;strokeWidth=2;" parent="1" source="ikSiXr2rSWbBqYA-w5zq-10" edge="1">
          <mxGeometry width="50" height="50" relative="1" as="geometry">
            <mxPoint x="249" y="473" as="sourcePoint" />
            <mxPoint x="160" y="443" as="targetPoint" />
          </mxGeometry>
        </mxCell>
        <mxCell id="ikSiXr2rSWbBqYA-w5zq-12" value="" style="endArrow=classic;html=1;entryX=0.5;entryY=0;entryDx=0;entryDy=0;strokeColor=default;labelBackgroundColor=default;fontColor=default;strokeWidth=2;" parent="1" target="ikSiXr2rSWbBqYA-w5zq-6" edge="1">
          <mxGeometry width="50" height="50" relative="1" as="geometry">
            <mxPoint x="158" y="173" as="sourcePoint" />
            <mxPoint x="188" y="193" as="targetPoint" />
          </mxGeometry>
        </mxCell>
        <mxCell id="ikSiXr2rSWbBqYA-w5zq-1" value="&lt;font style=&quot;font-size: 16px&quot; face=&quot;Times New Roman&quot;&gt;Cnov&lt;/font&gt;" style="rounded=0;whiteSpace=wrap;html=1;strokeColor=default;labelBackgroundColor=default;fontColor=default;strokeWidth=2;fillColor=default;" parent="1" vertex="1">
          <mxGeometry x="120" y="93" width="80" height="30" as="geometry" />
        </mxCell>
        <mxCell id="ikSiXr2rSWbBqYA-w5zq-3" value="" style="endArrow=classic;html=1;strokeColor=default;labelBackgroundColor=default;fontColor=default;strokeWidth=2;" parent="1" edge="1">
          <mxGeometry width="50" height="50" relative="1" as="geometry">
            <mxPoint x="158.5" y="123" as="sourcePoint" />
            <mxPoint x="158.5" y="143" as="targetPoint" />
          </mxGeometry>
        </mxCell>
        <mxCell id="ikSiXr2rSWbBqYA-w5zq-4" value="&lt;font style=&quot;font-size: 16px&quot; face=&quot;Times New Roman&quot;&gt;Cnov&lt;/font&gt;" style="rounded=0;whiteSpace=wrap;html=1;strokeColor=default;labelBackgroundColor=default;fontColor=default;strokeWidth=2;fillColor=default;" parent="1" vertex="1">
          <mxGeometry x="120" y="143" width="80" height="30" as="geometry" />
        </mxCell>
        <mxCell id="ikSiXr2rSWbBqYA-w5zq-6" value="&lt;font style=&quot;font-size: 16px&quot; face=&quot;Times New Roman&quot;&gt;Global pooling&lt;/font&gt;" style="rounded=0;whiteSpace=wrap;html=1;strokeColor=default;labelBackgroundColor=default;fontColor=default;strokeWidth=2;fillColor=default;" parent="1" vertex="1">
          <mxGeometry x="200" y="193" width="100" height="30" as="geometry" />
        </mxCell>
        <mxCell id="ikSiXr2rSWbBqYA-w5zq-7" value="&lt;font style=&quot;font-size: 16px&quot; face=&quot;Times New Roman&quot;&gt;FC&lt;/font&gt;" style="rounded=0;whiteSpace=wrap;html=1;strokeColor=default;labelBackgroundColor=default;fontColor=default;fillColor=default;strokeWidth=2;" parent="1" vertex="1">
          <mxGeometry x="210" y="243" width="80" height="30" as="geometry" />
        </mxCell>
        <mxCell id="ikSiXr2rSWbBqYA-w5zq-8" value="&lt;font style=&quot;font-size: 16px&quot; face=&quot;Times New Roman&quot;&gt;ReLU&lt;/font&gt;" style="rounded=0;whiteSpace=wrap;html=1;strokeColor=default;labelBackgroundColor=default;fontColor=default;fillColor=default;strokeWidth=2;" parent="1" vertex="1">
          <mxGeometry x="210" y="293" width="80" height="30" as="geometry" />
        </mxCell>
        <mxCell id="ikSiXr2rSWbBqYA-w5zq-9" value="&lt;font style=&quot;font-size: 16px&quot; face=&quot;Times New Roman&quot;&gt;FC&lt;/font&gt;" style="rounded=0;whiteSpace=wrap;html=1;strokeColor=default;labelBackgroundColor=default;fontColor=default;fillColor=default;strokeWidth=2;" parent="1" vertex="1">
          <mxGeometry x="210" y="343" width="80" height="30" as="geometry" />
        </mxCell>
        <mxCell id="ikSiXr2rSWbBqYA-w5zq-10" value="&lt;font style=&quot;font-size: 16px&quot; face=&quot;Times New Roman&quot;&gt;Sigmoid&lt;/font&gt;" style="rounded=0;whiteSpace=wrap;html=1;strokeColor=default;labelBackgroundColor=default;fontColor=default;fillColor=default;strokeWidth=2;" parent="1" vertex="1">
          <mxGeometry x="210" y="393" width="80" height="30" as="geometry" />
        </mxCell>
        <mxCell id="ikSiXr2rSWbBqYA-w5zq-13" value="" style="endArrow=classic;html=1;strokeColor=default;labelBackgroundColor=default;fontColor=default;strokeWidth=2;" parent="1" edge="1">
          <mxGeometry width="50" height="50" relative="1" as="geometry">
            <mxPoint x="248.5" y="223" as="sourcePoint" />
            <mxPoint x="248.5" y="243" as="targetPoint" />
          </mxGeometry>
        </mxCell>
        <mxCell id="ikSiXr2rSWbBqYA-w5zq-15" value="" style="endArrow=classic;html=1;strokeColor=default;labelBackgroundColor=default;fontColor=default;strokeWidth=2;" parent="1" edge="1">
          <mxGeometry width="50" height="50" relative="1" as="geometry">
            <mxPoint x="248.5" y="273" as="sourcePoint" />
            <mxPoint x="248.5" y="293" as="targetPoint" />
          </mxGeometry>
        </mxCell>
        <mxCell id="ikSiXr2rSWbBqYA-w5zq-18" value="" style="endArrow=classic;html=1;strokeColor=default;labelBackgroundColor=default;fontColor=default;strokeWidth=2;" parent="1" edge="1">
          <mxGeometry width="50" height="50" relative="1" as="geometry">
            <mxPoint x="248.5" y="323" as="sourcePoint" />
            <mxPoint x="248.5" y="343" as="targetPoint" />
          </mxGeometry>
        </mxCell>
        <mxCell id="ikSiXr2rSWbBqYA-w5zq-20" value="" style="endArrow=classic;html=1;strokeColor=default;labelBackgroundColor=default;fontColor=default;strokeWidth=2;" parent="1" edge="1">
          <mxGeometry width="50" height="50" relative="1" as="geometry">
            <mxPoint x="248.5" y="373" as="sourcePoint" />
            <mxPoint x="248.5" y="393" as="targetPoint" />
          </mxGeometry>
        </mxCell>
        <mxCell id="ikSiXr2rSWbBqYA-w5zq-22" value="" style="endArrow=classic;html=1;entryX=0.5;entryY=0;entryDx=0;entryDy=0;strokeColor=default;labelBackgroundColor=default;fontColor=default;strokeWidth=2;" parent="1" edge="1">
          <mxGeometry width="50" height="50" relative="1" as="geometry">
            <mxPoint x="159" y="173" as="sourcePoint" />
            <mxPoint x="160" y="443" as="targetPoint" />
          </mxGeometry>
        </mxCell>
        <mxCell id="ikSiXr2rSWbBqYA-w5zq-24" value="" style="ellipse;whiteSpace=wrap;html=1;aspect=fixed;strokeColor=default;labelBackgroundColor=default;fontColor=default;fillColor=default;strokeWidth=2;" parent="1" vertex="1">
          <mxGeometry x="151" y="500" width="20" height="20" as="geometry" />
        </mxCell>
        <mxCell id="ikSiXr2rSWbBqYA-w5zq-25" value="" style="endArrow=none;html=1;strokeColor=default;labelBackgroundColor=default;fontColor=default;fillColor=default;strokeWidth=2;" parent="1" edge="1">
          <mxGeometry width="50" height="50" relative="1" as="geometry">
            <mxPoint x="151" y="509.5" as="sourcePoint" />
            <mxPoint x="171" y="509.5" as="targetPoint" />
          </mxGeometry>
        </mxCell>
        <mxCell id="ikSiXr2rSWbBqYA-w5zq-26" value="" style="endArrow=none;html=1;strokeColor=default;labelBackgroundColor=default;fontColor=default;fillColor=default;strokeWidth=2;" parent="1" edge="1">
          <mxGeometry width="50" height="50" relative="1" as="geometry">
            <mxPoint x="160.5" y="520" as="sourcePoint" />
            <mxPoint x="160.5" y="500" as="targetPoint" />
          </mxGeometry>
        </mxCell>
        <mxCell id="ikSiXr2rSWbBqYA-w5zq-27" value="" style="endArrow=classic;html=1;strokeColor=default;labelBackgroundColor=default;fontColor=default;fillColor=default;strokeWidth=2;" parent="1" edge="1">
          <mxGeometry width="50" height="50" relative="1" as="geometry">
            <mxPoint x="160.5" y="520" as="sourcePoint" />
            <mxPoint x="160.5" y="550" as="targetPoint" />
          </mxGeometry>
        </mxCell>
        <mxCell id="ikSiXr2rSWbBqYA-w5zq-28" value="" style="endArrow=classic;html=1;entryX=0.5;entryY=0;entryDx=0;entryDy=0;strokeColor=default;labelBackgroundColor=default;fontColor=default;strokeWidth=2;" parent="1" target="ikSiXr2rSWbBqYA-w5zq-1" edge="1">
          <mxGeometry width="50" height="50" relative="1" as="geometry">
            <mxPoint x="159" y="43" as="sourcePoint" />
            <mxPoint x="209" y="-27" as="targetPoint" />
          </mxGeometry>
        </mxCell>
        <mxCell id="ikSiXr2rSWbBqYA-w5zq-30" value="&lt;font face=&quot;Times New Roman&quot; style=&quot;font-size: 18px&quot;&gt;$$&lt;br&gt;X$$&lt;/font&gt;" style="text;html=1;strokeColor=none;fillColor=none;align=center;verticalAlign=middle;whiteSpace=wrap;rounded=0;labelBackgroundColor=none;fontColor=default;" parent="1" vertex="1">
          <mxGeometry x="139" y="23" width="40" height="20" as="geometry" />
        </mxCell>
        <mxCell id="ikSiXr2rSWbBqYA-w5zq-31" value="&lt;font style=&quot;font-size: 14px&quot; face=&quot;Times New Roman&quot;&gt;$$H{\times}W{\times}C$$&lt;/font&gt;" style="text;html=1;strokeColor=none;fillColor=none;align=center;verticalAlign=middle;whiteSpace=wrap;rounded=0;labelBackgroundColor=none;fontColor=default;" parent="1" vertex="1">
          <mxGeometry x="221" y="153" width="40" height="20" as="geometry" />
        </mxCell>
        <mxCell id="ikSiXr2rSWbBqYA-w5zq-33" value="&lt;font style=&quot;font-size: 14px&quot; face=&quot;Times New Roman&quot;&gt;$$1{\times}1{\times}C$$&lt;/font&gt;" style="text;html=1;strokeColor=none;fillColor=none;align=center;verticalAlign=middle;whiteSpace=wrap;rounded=0;labelBackgroundColor=none;fontColor=default;" parent="1" vertex="1">
          <mxGeometry x="311" y="213" width="40" height="20" as="geometry" />
        </mxCell>
        <mxCell id="ikSiXr2rSWbBqYA-w5zq-34" value="&lt;font style=&quot;font-size: 14px&quot; face=&quot;Times New Roman&quot;&gt;$$1{\times}1{\times}\frac{C}{r}$$&lt;/font&gt;" style="text;html=1;strokeColor=none;fillColor=none;align=center;verticalAlign=middle;whiteSpace=wrap;rounded=0;labelBackgroundColor=none;fontColor=default;" parent="1" vertex="1">
          <mxGeometry x="313" y="263" width="40" height="20" as="geometry" />
        </mxCell>
        <mxCell id="ikSiXr2rSWbBqYA-w5zq-35" value="&lt;font face=&quot;Times New Roman&quot; style=&quot;font-size: 14px&quot;&gt;$$1{\times}1{\times}\frac{C}{r}$$&lt;/font&gt;" style="text;html=1;strokeColor=none;fillColor=none;align=center;verticalAlign=middle;whiteSpace=wrap;rounded=0;labelBackgroundColor=none;fontColor=default;" parent="1" vertex="1">
          <mxGeometry x="313" y="313" width="40" height="20" as="geometry" />
        </mxCell>
        <mxCell id="ikSiXr2rSWbBqYA-w5zq-36" value="&lt;font face=&quot;Times New Roman&quot; style=&quot;font-size: 14px&quot;&gt;$$1{\times}1{\times}C$$&lt;/font&gt;" style="text;html=1;strokeColor=none;fillColor=none;align=center;verticalAlign=middle;whiteSpace=wrap;rounded=0;labelBackgroundColor=none;fontColor=default;" parent="1" vertex="1">
          <mxGeometry x="311" y="363" width="40" height="20" as="geometry" />
        </mxCell>
        <mxCell id="ikSiXr2rSWbBqYA-w5zq-37" value="&lt;font face=&quot;Times New Roman&quot; style=&quot;font-size: 14px&quot;&gt;$$1{\times}1{\times}C$$&lt;/font&gt;" style="text;html=1;strokeColor=none;fillColor=none;align=center;verticalAlign=middle;whiteSpace=wrap;rounded=0;labelBackgroundColor=none;fontColor=default;" parent="1" vertex="1">
          <mxGeometry x="311" y="413" width="40" height="20" as="geometry" />
        </mxCell>
        <mxCell id="ikSiXr2rSWbBqYA-w5zq-39" value="&lt;font face=&quot;Times New Roman&quot; style=&quot;font-size: 14px&quot;&gt;$$H{\times}W{\times}C$$&lt;/font&gt;" style="text;html=1;strokeColor=none;fillColor=none;align=center;verticalAlign=middle;whiteSpace=wrap;rounded=0;labelBackgroundColor=none;fontColor=default;" parent="1" vertex="1">
          <mxGeometry x="214" y="464" width="40" height="20" as="geometry" />
        </mxCell>
        <mxCell id="ikSiXr2rSWbBqYA-w5zq-40" value="&lt;font face=&quot;Times New Roman&quot; style=&quot;font-size: 14px&quot;&gt;$$H{\times}W{\times}C$$&lt;/font&gt;" style="text;html=1;strokeColor=none;fillColor=default;align=center;verticalAlign=middle;whiteSpace=wrap;rounded=0;labelBackgroundColor=none;fontColor=default;" parent="1" vertex="1">
          <mxGeometry x="181" y="510" width="40" height="20" as="geometry" />
        </mxCell>
        <mxCell id="ikSiXr2rSWbBqYA-w5zq-41" value="&lt;font face=&quot;Times New Roman&quot; style=&quot;font-size: 18px&quot;&gt;$$X^{&#39;}$$&lt;/font&gt;" style="text;html=1;strokeColor=none;fillColor=none;align=center;verticalAlign=middle;whiteSpace=wrap;rounded=0;labelBackgroundColor=none;fontColor=default;" parent="1" vertex="1">
          <mxGeometry x="141" y="554" width="40" height="20" as="geometry" />
        </mxCell>
        <mxCell id="jw-GDh8ApK8CmfLU1DaC-1" value="" style="edgeStyle=elbowEdgeStyle;elbow=horizontal;endArrow=classic;html=1;rounded=0;labelBackgroundColor=default;fontFamily=Times New Roman;fontSize=16;fontColor=default;strokeColor=default;strokeWidth=2;" edge="1" parent="1">
          <mxGeometry width="50" height="50" relative="1" as="geometry">
            <mxPoint x="160" y="70" as="sourcePoint" />
            <mxPoint x="150" y="510" as="targetPoint" />
            <Array as="points">
              <mxPoint x="80" y="290" />
            </Array>
          </mxGeometry>
        </mxCell>
        <mxCell id="jw-GDh8ApK8CmfLU1DaC-3" value="&lt;font style=&quot;font-size: 18px&quot;&gt;&lt;b&gt;Shortcut&lt;/b&gt;&lt;/font&gt;" style="text;html=1;strokeColor=none;fillColor=none;align=center;verticalAlign=middle;whiteSpace=wrap;rounded=0;labelBackgroundColor=none;labelBorderColor=none;fontFamily=Times New Roman;fontSize=15;fontColor=default;rotation=-90;" vertex="1" parent="1">
          <mxGeometry x="30" y="270" width="60" height="30" as="geometry" />
        </mxCell>
        <mxCell id="jw-GDh8ApK8CmfLU1DaC-4" value="&lt;font style=&quot;font-size: 16px&quot; face=&quot;Times New Roman&quot;&gt;Scale&lt;/font&gt;" style="rounded=0;whiteSpace=wrap;html=1;strokeColor=default;labelBackgroundColor=default;fontColor=default;strokeWidth=2;fillColor=default;" vertex="1" parent="1">
          <mxGeometry x="119" y="443" width="80" height="30" as="geometry" />
        </mxCell>
        <mxCell id="jw-GDh8ApK8CmfLU1DaC-5" value="" style="endArrow=classic;html=1;strokeColor=default;labelBackgroundColor=default;fontColor=default;strokeWidth=2;" edge="1" parent="1">
          <mxGeometry width="50" height="50" relative="1" as="geometry">
            <mxPoint x="159.65999999999988" y="473" as="sourcePoint" />
            <mxPoint x="160" y="500" as="targetPoint" />
          </mxGeometry>
        </mxCell>
      </root>
    </mxGraphModel>
  </diagram>
</mxfile>
